<svg width="599" height="600" viewBox="0 0 599 600" fill="none" xmlns="http://www.w3.org/2000/svg">
<path d="M272.955 313.245V257.878C272.955 257.878 223.082 231.444 173.528 231.444C123.974 231.444 75.6206 258.648 75.6206 258.648V303.212C61.4221 330.097 62.1348 357.339 62.1348 357.339L70.5376 494.864L66.2987 535.652H170.677L140.011 477.373L149.089 475.118V440.455C114.033 429.446 88.1873 398.146 85.2988 360.195L109.363 363.633V378.344H172.403V367.935H183.507V378.344H246.546V364.028L266.578 360.89C265.415 392.679 249.022 435.232 200.35 441.564V473.916H200.481L212.072 479.44L180.918 535.652H240.938C241.163 534.412 241.351 533.116 241.576 531.857L242.101 535.652H281.677L275.469 479.364C277.475 464.391 284.34 440.944 285.316 417.535C286.216 396.868 287.247 351.816 272.261 313C272.711 313.151 272.955 313.245 272.955 313.245ZM165.369 371.317H116.378V346.348H165.369V371.317V371.317ZM239.55 371.317H190.54V346.348H239.55V371.317ZM246.565 353.337V339.303H183.507V353.92H172.403V339.303H109.363V352.999L85.0362 349.467C85.2238 347.682 85.4864 345.935 85.6552 344.131C111.014 342.422 139.636 322.413 141.868 294.57C173.903 321.154 219.35 322.451 257.2 325.889C261.908 328.068 265.415 337.612 266.372 350.275L246.565 353.337Z" fill="#3360FF"/>
<path d="M347.929 235.051L328.291 224.173V219.007C328.291 219.007 333.824 190.957 302.426 205.611C300.832 206.494 299.969 207.377 299.631 208.223L170.138 136.304L0 233.849L64.259 263.082V253.576C64.259 253.576 118.164 223.271 173.42 223.271C228.676 223.271 284.289 252.73 284.289 252.73V269.32L319.738 250.232C319.738 272.345 319.738 319.595 319.738 327.486H307.94V354.953L323.639 344.075L341.064 354.953V327.486H328.291V245.61L347.929 235.051ZM319.738 214.253C319.738 214.911 319.738 216.752 319.738 219.42L309.385 213.671C313.173 211.135 319.738 207.696 319.738 214.253ZM316.212 244.558C311.654 244.558 307.94 240.838 307.94 236.272C307.94 231.669 311.654 227.95 316.212 227.95C320.788 227.95 324.502 231.669 324.502 236.272C324.54 240.838 320.807 244.558 316.212 244.558Z" fill="#3360FF"/>
<path d="M543.638 318.75H524.206H495.078L465.949 353.676L435.864 318.75H405.141H383.197H366.26V370.698H560.181L558.661 318.75H543.638Z" fill="#3360FF"/>
<path d="M464.583 306.857C508.173 306.857 543.528 271.48 543.528 227.818C543.528 218.03 541.615 208.636 538.37 199.975C540.058 200.614 541.09 201.046 541.09 201.046V158.248C541.09 158.248 502.546 137.825 464.283 137.825C426.001 137.825 388.658 158.83 388.658 158.83V201.027C388.658 201.027 389.427 200.689 390.777 200.181C387.57 208.805 385.713 218.086 385.713 227.818C385.657 271.48 420.975 306.857 464.583 306.857Z" fill="#3360FF"/>
<path d="M583.816 148.779L598.99 140.625L583.816 132.208V128.225C583.816 128.225 588.111 106.544 563.86 117.873C562.622 118.568 561.928 119.226 561.665 119.883L461.657 64.3472L330.213 139.685L379.842 162.287V154.941C379.842 154.941 421.481 131.532 464.17 131.532C506.859 131.532 549.792 154.283 549.792 154.283V167.096L577.195 152.367C577.195 169.445 577.195 205.968 577.195 212.055H568.08V233.247L580.196 224.849L593.682 233.247V212.036H583.816V148.779ZM577.177 124.561C577.177 125.069 577.177 126.478 577.177 128.544L569.186 124.11C572.131 122.157 577.177 119.507 577.177 124.561ZM574.494 147.952C570.968 147.952 568.08 145.115 568.08 141.545C568.08 137.976 570.949 135.12 574.494 135.12C578.039 135.12 580.928 137.976 580.928 141.545C580.928 145.115 578.021 147.952 574.494 147.952Z" fill="#3360FF"/>
</svg>
