<svg width="376" height="603" viewBox="0 0 376 603" fill="none" xmlns="http://www.w3.org/2000/svg">
<path d="M243.253 121.258C244.762 93.8558 223.77 70.4187 196.368 68.91C168.965 67.4014 145.528 88.3925 144.02 115.795C142.511 143.198 163.502 166.635 190.905 168.143C218.307 169.652 241.744 148.661 243.253 121.258Z" fill="#3360FF"/>
<path d="M163.693 538.402L143.745 422.536H89.2598L110.874 547.535C113.397 562.124 127.266 571.9 141.851 569.378C156.434 566.857 166.214 552.988 163.693 538.402V538.402Z" fill="#3360FF"/>
<path d="M236.585 422.536L218.592 538.873C216.33 553.501 226.354 567.193 240.984 569.456C255.613 571.718 269.305 561.69 271.567 547.064L290.824 422.536H236.585Z" fill="#3360FF"/>
<path d="M348.54 353.256C343.376 353.256 299.195 353.256 293.695 353.256C304.515 350.945 312.634 341.338 312.634 329.829C312.634 320.568 312.634 252.064 312.634 242.427C312.634 210.333 286.525 184.224 254.431 184.224C242.972 184.224 163.229 184.224 153.765 184.224C142.892 172.87 119.146 147.258 96.5432 122.62L81.2999 20.4314C79.347 7.34217 67.1625 -1.68828 54.0627 0.265807C40.9723 2.21872 31.943 14.4126 33.8971 27.503L50.2228 136.945C50.9274 141.668 53.0274 146.074 56.2533 149.596C74.8071 169.877 129.939 227.582 129.939 227.582V353.258H27.4584C12.2939 353.258 0 365.552 0 380.716C0 395.118 11.0904 406.923 25.1949 408.075V582.253C25.1949 593.245 34.1054 602.155 45.097 602.155C56.0885 602.155 64.999 593.245 64.999 582.253V408.172H312.455V582.25C312.455 593.241 321.366 602.152 332.357 602.152C343.349 602.152 352.259 593.241 352.259 582.25V407.915C365.665 406.099 376 394.617 376 380.714C375.999 365.548 363.705 353.256 348.54 353.256V353.256ZM264.705 291.882V305.863H184.436C171.201 305.863 160.472 316.593 160.472 329.828C160.472 341.338 168.59 350.944 179.41 353.254H153.007C147.934 346.803 144.9 338.671 144.9 329.828C144.9 308.87 161.889 291.882 182.845 291.882H256.872V232.456C261.362 233.556 264.706 237.602 264.706 242.426V291.882H264.705Z" fill="#3360FF"/>
</svg>
