<svg width="485" height="600" viewBox="0 0 485 600" fill="none" xmlns="http://www.w3.org/2000/svg">
<path d="M217.005 118.254C249.626 118.254 276.129 91.7815 276.129 59.1274C276.129 26.4635 249.626 0 217.005 0C184.346 0 157.865 26.4635 157.865 59.1274C157.865 91.7815 184.346 118.254 217.005 118.254Z" fill="#3360FF"/>
<path d="M308.373 453.301C292.661 507.855 242.368 547.919 182.823 547.919C110.714 547.919 52.0734 489.276 52.0734 417.19C52.0734 363.828 84.2653 317.9 130.207 297.605V242.183C54.9711 264.844 0 334.684 0 417.19C0 517.986 82.0127 600 182.821 600C256.286 600 319.608 556.338 348.642 493.691L328 453.134C322.205 453.182 315.493 453.243 308.373 453.301Z" fill="#3360FF"/>
<path d="M480.633 523.486L401.435 367.781C395.524 356.13 383.575 348.797 370.503 348.797H269.068V325.666H356.367C365.085 325.666 372.412 321.11 377.145 314.546C380.221 310.271 382.409 305.303 382.409 299.624C382.409 285.246 370.763 273.584 356.367 273.584H303.773H269.068V195.132C269.068 173.555 253.069 143.051 217.005 143.051C188.243 143.051 164.926 166.372 164.926 195.132V365.106C164.926 394.447 188.711 418.232 218.053 418.232H313.503H349.217L418.762 554.967C424.873 567.01 437.069 573.96 449.726 573.96C455.031 573.96 460.41 572.747 465.437 570.174C482.553 561.493 489.351 540.577 480.633 523.486Z" fill="#3360FF"/>
</svg>
