<svg width="600" height="600" viewBox="0 0 600 600" fill="none" xmlns="http://www.w3.org/2000/svg">
<path d="M424.219 0V600L600 559.827V40.173L424.219 0ZM529.688 352.734H494.531V247.266H529.688V352.734Z" fill="#3360FF"/>
<path d="M87.8906 97.2856C53.9707 97.2856 26.3672 124.889 26.3672 158.809C26.3672 182.338 39.798 202.581 59.2559 212.927C57.0773 212.654 54.9656 212.109 52.7344 212.109C23.6555 212.109 0 235.765 0 264.844V423.047H35.1562V563.672H70.3125V423.047H105.469V264.844C105.469 246.362 96.0879 229.294 79.3055 219.463C82.1356 219.864 84.9516 220.333 87.8906 220.333C121.811 220.333 149.414 192.729 149.414 158.809C149.414 124.889 121.811 97.2856 87.8906 97.2856Z" fill="#3360FF"/>
<path d="M246.094 97.2856C212.174 97.2856 184.57 124.889 184.57 158.809C184.57 182.338 198.001 202.581 217.459 212.927C215.28 212.654 213.17 212.109 210.938 212.109C181.859 212.109 158.203 235.765 158.203 264.844V423.047H193.359V563.672H228.516V423.047H263.672V264.844C263.672 246.362 254.291 229.294 237.509 219.463C240.339 219.864 243.155 220.333 246.094 220.333C280.014 220.333 307.617 192.729 307.617 158.809C307.617 124.889 280.014 97.2856 246.094 97.2856Z" fill="#3360FF"/>
<path d="M353.906 36.3281H389.062V563.672H353.906V36.3281Z" fill="#3360FF"/>
</svg>
