<svg width="368" height="601" viewBox="0 0 368 601" fill="none" xmlns="http://www.w3.org/2000/svg">
<path d="M136.201 0C130.226 0 124.897 0.493066 120.449 1.62007C84.2376 10.7871 21.394 64.5031 4.32795 82.8391C-3.86461 91.6459 -0.615209 109.231 15.6932 109.231C22.7425 109.231 32.228 105.947 44.2837 97.2527C66.3218 81.3579 93.3049 74.3584 117.955 74.3584C137.997 74.3584 156.496 78.9811 169.56 87.2042C176.032 91.2776 176.011 92.64 172.257 92.64C164.717 92.64 142.107 87.1499 126.783 87.1499C119.244 87.1499 113.471 88.4782 112.118 92.4428C105.877 110.785 130.078 116.69 155.387 127.436C173.917 135.307 196.526 141.248 218.062 141.248C227.041 141.248 235.901 140.214 244.132 137.859C281.511 127.165 306.617 119.115 316.208 116.498V13.5704C298.944 19.5073 283 25.1987 272.853 25.1987C254.233 25.1987 178.858 0 136.201 0Z" fill="#3360FF"/>
<path d="M139.588 487.395H137.608C130.413 487.395 122.47 479.419 122.47 471.556V357.459C122.47 349.646 129.454 343.307 135.928 343.226L163.509 343.234C152.39 334.18 145.622 321.809 145.622 306.313C145.622 287.785 156.099 271.577 171.055 264.008H133.595C149.79 253.07 160.528 234.001 160.528 212.292C160.528 194.401 153.239 178.303 141.617 167.067C131.178 156.974 117.241 150.806 101.93 150.806C100.48 150.806 99.0468 150.88 97.6235 150.989C67.2702 153.303 43.3274 179.854 43.3274 212.292C43.3274 234.001 54.0635 253.07 70.2587 264.008H31.1047H30.3835H26.5605V264.287C18.8878 265.726 9.29688 272.951 9.29688 282.255V434.643C9.29688 445.059 20.453 455.198 30.3835 455.198H31.1047C39.6713 455.198 45.7424 448.183 47.6606 439.565V572.164C47.6606 587.561 60.8059 600.099 75.48 600.099H76.3278C89.7551 600.099 100.825 589.642 102.617 576.07C104.406 589.642 115.478 600.099 128.9 600.099H129.747C137.537 600.099 143.568 596.503 149.322 590.9V479.224C147.406 483.168 144.199 487.395 139.588 487.395Z" fill="#3360FF"/>
<path d="M243.509 162.551C228.868 173.728 219.34 191.837 219.34 212.29C219.34 233.999 230.078 253.068 246.273 264.006H209.003C223.934 271.547 234.254 287.667 234.254 306.172C234.254 321.664 227.022 334.182 215.905 343.236L244.048 343.299C252.68 344.11 256.747 351.043 256.747 358.433V473.498C256.747 481.363 251.525 489.405 244.025 489.405H243.482C238.186 489.405 233.728 484.708 229.892 479.975V591.894C235.647 596.924 242.796 600.093 250.121 600.093H250.969C264.391 600.093 275.464 589.636 277.254 576.064C279.044 589.636 290.115 600.093 303.541 600.093H304.389C319.061 600.093 329.636 587.555 329.636 572.158V439.559C331.554 448.175 340.197 455.192 348.764 455.192H349.485C359.414 455.192 367.999 445.053 367.999 434.637V282.249C367.999 272.496 360.327 265.014 350.736 264.1V264.004H349.485H348.764H309.61C325.805 253.066 336.541 233.997 336.541 212.288C336.541 179.875 312.635 153.34 282.314 150.991C280.868 150.878 279.412 150.802 277.941 150.802C265.071 150.804 253.177 155.169 243.509 162.551Z" fill="#3360FF"/>
</svg>
