<svg width="431" height="601" viewBox="0 0 431 601" fill="none" xmlns="http://www.w3.org/2000/svg">
<path d="M327.5 276.285C323.528 282.017 321.406 288.784 321.406 295.62C321.406 306.978 327.356 317.84 337.176 324.471C347.135 331.191 360.301 332.944 371.861 329.098C383.1 325.358 392.01 316.594 395.449 305.875C398.985 294.855 396.506 282.62 388.897 273.598C381.354 264.657 369.472 259.598 357.34 260.159C345.308 260.711 334.066 266.806 327.5 276.285Z" fill="#3360FF"/>
<path d="M430.135 417.335C430.209 419.28 430.086 415.388 430.135 417.335V417.335Z" fill="#3360FF"/>
<path d="M90.0486 155.676C99.0353 160.215 109.174 162.588 119.376 162.588C143.62 162.588 166.155 148.842 176.02 128.05C186.013 106.988 181.489 81.6822 164.781 64.8081C148.085 47.9426 121.61 41.8488 98.4994 49.6091C75.7745 57.2393 59.4638 77.2376 57.5894 99.8275C55.6979 122.626 68.593 144.836 90.0486 155.676Z" fill="#3360FF"/>
<path d="M197.018 105.888C208.851 115.913 224.441 121.533 240.379 121.533C264.594 121.533 287.278 108.412 298.195 88.1221C309.264 67.5544 306.73 42.1482 291.82 23.8556C276.963 5.62554 251.822 -3.30786 227.821 1.11957C204.266 5.46479 184.731 22.3376 178.126 43.9999C171.386 66.1187 178.833 90.4806 197.018 105.888Z" fill="#3360FF"/>
<path d="M407.889 427.764C408.519 433.281 413.814 437.47 419.706 437.149C425.527 436.834 430.223 432.188 430.271 426.719C430.298 423.581 430.253 420.47 430.135 417.335C429.956 409.996 428.374 402.388 426.096 395.378C424.133 389.336 421.606 383.458 418.394 377.904C410.543 364.331 399.328 352.536 385.858 343.661C382.71 341.59 379.376 339.424 375.773 338.114C365.549 333.414 353.286 333.359 343.012 337.96C340.256 338.871 337.717 340.397 335.276 341.877C332.238 343.718 329.327 345.739 326.52 347.878C319.989 352.851 314.068 358.556 308.949 364.819C299.983 375.787 293.353 388.656 290.353 402.226C288.558 410.358 287.976 418.433 288.042 426.72C288.085 432.268 292.914 436.932 298.811 437.162C304.636 437.39 309.797 433.203 310.427 427.765C311.747 416.076 314.716 404.569 321.543 394.544V405.929L296.562 500.651C295.441 504.736 294.703 508.96 303.192 508.96H323.943L327.793 588.049C328.13 594.523 333.999 599.798 340.91 599.792C347.767 599.785 353.587 594.588 353.962 588.163L358.626 508.959H360.024L363.873 588.048C364.21 594.522 370.079 599.797 376.99 599.791C383.847 599.783 389.668 594.587 390.046 588.162L394.706 508.958H415.007C417.228 508.958 419.316 508.035 420.731 506.427C422.148 504.816 422.719 502.719 422.284 500.628L396.905 405.552V394.745C403.796 404.534 406.594 416.286 407.889 427.764Z" fill="#3360FF"/>
<path d="M288.963 505.174L297.579 470.156L298.751 448.428C288.003 445.888 280.203 436.84 280.124 426.175C280.032 416.405 280.805 406.843 283.16 397.31C285.516 387.776 289.302 378.741 294.26 370.152C297.199 365.065 300.694 360.229 304.49 355.677C304.956 351.708 304.878 347.724 304.878 343.736C304.878 338.144 304.878 332.551 304.878 326.958C304.878 310.858 304.878 294.757 304.878 278.657C304.878 267.129 304.878 255.601 304.878 244.072C304.878 243.469 304.878 242.866 304.878 242.262C310.353 253.343 314.187 264.946 317.302 276.786C324.039 261.367 338.48 253.561 358.45 250.463C355.152 238.43 349.928 223.437 344.403 212.117C337.347 197.669 328.784 183.961 318.096 171.598C311.119 163.522 303.315 156.104 294.862 149.392C290.736 146.173 286.446 143.121 281.963 140.354C278.196 138.03 274.149 135.971 270.064 134.149C227.592 115.202 193.871 145.982 193.036 146.676C183.972 154.234 174.91 161.792 165.846 169.352C189.76 185.176 209.528 206.186 223.387 230.353C232.258 245.822 238.411 262.85 241.459 280.177C243.532 291.956 244.114 303.727 244.01 315.657C243.864 331.892 229.213 345.435 211.911 345.295C209.286 345.274 206.733 344.957 204.29 344.371C204.29 344.371 228.12 425.971 229.47 431.183C231.295 438.239 231.921 452.909 214.519 452.909C195.075 452.909 185.631 452.909 185.631 452.909L183.42 489.542L187.398 578.989C187.931 590.083 197.96 599.152 209.801 599.16C221.592 599.17 231.602 590.218 232.197 579.171L240.257 429.317L246.918 578.988C247.451 590.082 257.482 599.152 269.321 599.159C281.113 599.168 291.122 590.217 291.717 579.168L295.221 514.077C286.088 513.401 288.963 505.174 288.963 505.174Z" fill="#3360FF"/>
<path d="M211.108 446.473C214.437 446.473 217.565 445.09 219.687 442.679C221.81 440.264 222.732 437.511 222.015 433.988L179.162 288.094V264.996C185.369 273.99 189.757 284.369 192.708 294.682C195.009 302.72 196.209 310.846 197.148 319.103C198.176 328.104 206.788 334.955 216.404 334.489C225.989 334.024 233.748 326.394 233.826 317.389C233.875 311.842 233.829 306.338 233.539 300.797C233.143 293.189 231.879 285.575 230.232 278.126C226.792 262.595 220.668 247.532 212.246 233.776C203.819 220.003 193.172 207.459 180.898 196.535C175 191.286 168.705 186.412 162.09 181.979C157.027 178.587 151.729 175.209 146.054 172.786C145.548 172.57 145.035 172.379 144.516 172.194C127.764 164.498 107.675 164.402 90.8459 171.946C84.867 173.921 79.3704 177.489 74.2032 180.859C67.6596 185.124 61.4532 189.835 55.5815 194.887C43.0721 205.648 32.4057 218.097 23.6451 231.719C19.2596 238.539 15.5107 245.778 12.3605 253.173C9.27692 260.42 6.58027 268.036 4.90319 275.689C3.22611 283.33 2.00261 290.924 1.20917 298.691C0.583041 304.82 0.718989 310.999 0.767353 317.146C0.769968 317.226 0.769966 317.309 0.769966 317.391C0.84186 326.449 8.69263 334.072 18.3198 334.495C27.9012 334.917 36.4186 328.049 37.45 319.102C38.3924 310.845 39.5924 302.719 41.8891 294.684C44.8942 284.186 49.4209 273.847 55.6599 264.665V286.338L12.6847 434.019C12.0415 437.097 12.8912 440.247 15.0088 442.666C17.1303 445.086 20.2622 446.475 23.6007 446.475H59.371L65.908 581.755C66.4596 592.329 76.0202 600.964 87.31 600.997C98.5816 601.029 108.176 592.505 108.794 581.946L116.705 446.478H118.503L125.037 581.757C125.589 592.332 135.152 600.967 146.439 601C157.711 601.032 167.308 592.507 167.926 581.949L175.837 446.48H211.108V446.473V446.473Z" fill="#3360FF"/>
</svg>
