<svg width="492" height="601" viewBox="0 0 492 601" fill="none" xmlns="http://www.w3.org/2000/svg">
<path d="M312.79 191.134L329.194 187.412C331.722 181.695 335.433 176.697 339.993 172.758C324.573 169.064 311.526 159.124 303.635 145.729L287.553 149.378C301.309 158.634 310.887 173.731 312.79 191.134Z" fill="#3360FF"/>
<path d="M155.699 571.855L178.802 479.956C179.28 478.054 179.913 476.196 180.695 474.4L182.779 469.617C179.131 467.061 176.39 463.659 174.58 459.466C173.019 473.492 163.299 485.058 150.335 489.194C147.515 496.212 141.321 501.49 133.789 502.962L124.182 568.206C121.947 583.389 132.325 597.529 147.363 599.786C151.346 600.385 155.425 600.13 159.611 598.806C154.976 590.991 153.305 581.384 155.699 571.855V571.855Z" fill="#3360FF"/>
<path d="M188.38 359.781C187.663 359.622 176.179 357.086 174.381 356.688C174.66 358.482 174.807 360.319 174.807 362.191V434.677C177.962 417.279 184.854 379.249 188.38 359.781Z" fill="#3360FF"/>
<path d="M262.658 240.131C285.945 236.319 301.763 214.168 297.988 190.655C294.213 167.142 272.275 151.171 248.987 154.983C225.7 158.795 209.883 180.946 213.658 204.459C217.433 227.971 239.371 243.943 262.658 240.131Z" fill="#3360FF"/>
<path d="M298.256 459.025H316.067C321.49 459.025 325.613 453.584 324.553 447.732L323.89 444.076C320.251 442.682 316.917 440.43 314.205 437.456C309.159 431.924 306.636 424.395 307.283 416.801L311.013 373.016L301.869 322.555L285.365 324.531C272.317 326.092 260.101 320.219 252.857 310.226L225.981 354.11C217.668 367.683 202.739 362.916 202.592 362.926L187.223 447.733C186.163 453.586 190.265 459.026 195.709 459.026H203.699L194.358 480.469C193.908 481.502 193.543 482.571 193.27 483.665L170.167 575.564C167.42 586.49 173.966 597.595 184.786 600.367C195.603 603.139 206.605 596.533 209.352 585.607L232.041 495.35L247.864 459.026H257.831V473.706V499.018C257.831 501.594 258.314 504.147 259.254 506.542L291.294 588.108C295.404 598.571 307.143 603.718 317.536 599.556C319.963 598.585 322.085 597.178 323.883 595.48C320.252 588.899 318.317 581.257 318.658 573.179L319.654 549.587L298.259 495.118V473.706V459.025H298.256Z" fill="#3360FF"/>
<path d="M183.672 105.779C211.553 103.661 232.454 79.1234 230.357 50.9723C228.259 22.8211 203.957 1.71684 176.076 3.83453C148.196 5.95222 127.294 30.49 129.391 58.6411C131.489 86.7923 155.791 107.897 183.672 105.779Z" fill="#3360FF"/>
<path d="M91.0398 490.831H69.2579C65.5637 498.263 57.9626 503.387 49.1822 503.387H47.6516L38.1076 568.207C35.8723 583.391 46.2504 597.53 61.2884 599.787C76.3622 602.05 90.3363 591.531 92.5658 576.382L103.515 502.021C98.0737 500.037 93.6101 496.001 91.0398 490.831Z" fill="#3360FF"/>
<path d="M264.438 258.133C255.269 258.133 247.862 258.133 238.288 258.133C228.574 258.133 220.215 265.656 218.33 276.063L215.471 291.84L234.969 280.549L200.014 314.692L146.555 302.881C138.026 300.992 129.587 306.452 127.719 315.07C126.807 319.279 127.638 323.457 129.713 326.855H139.81C150.845 326.855 160.696 332.043 167.114 340.125L201.535 347.731C206.684 348.871 212.093 347.343 215.915 343.608L251.745 308.61C248.901 304.19 246.987 299.064 246.331 293.477C244.589 278.639 252.189 264.864 264.438 258.133V258.133Z" fill="#3360FF"/>
<path d="M353.327 159.663C377.212 159.663 396.575 140.113 396.575 115.997C396.575 91.8803 377.212 72.3301 353.327 72.3301C329.443 72.3301 310.08 91.8803 310.08 115.997C310.08 140.113 329.443 159.663 353.327 159.663Z" fill="#3360FF"/>
<path d="M491.12 401.734L432.74 193.732C429.121 180.836 417.796 172.858 406.037 173.992C388.914 175.642 378.064 176.689 362.636 178.176C350.657 179.331 341.226 189.602 340.114 202.66L336.339 246.974L340.284 246.502L369.412 217.584L342.779 262.003L278.917 269.647C268.169 270.935 260.489 280.776 261.763 291.628C263.04 302.496 272.8 310.234 283.532 308.948L356.896 300.165C362.893 299.447 368.227 295.978 371.354 290.763L402.944 238.081L384.647 298.889C379.303 316.651 360.83 315.03 358.726 315.747L330.191 319.163L321.767 418.059C321.137 425.465 326.894 431.621 333.549 430.976C337.919 430.555 343.227 430.043 349.209 429.467L340.712 461.85C340.249 463.615 339.976 465.425 339.899 467.248L335.4 573.898C334.812 587.849 345.535 599.639 359.352 600.233C359.715 600.248 360.076 600.256 360.437 600.256C373.774 600.255 384.862 589.633 385.436 576.05L389.82 472.143L402.361 424.342C405.528 424.036 408.703 423.731 411.872 423.425V475.883C411.872 477.843 412.098 479.798 412.545 481.706L435.776 580.797C438.503 592.427 448.78 600.262 460.122 600.262C462.032 600.262 463.973 600.039 465.912 599.576C479.369 596.361 487.696 582.738 484.511 569.149L461.954 472.932V418.599C469.732 417.849 476.567 417.19 481.975 416.67C488.649 416.027 493.114 408.839 491.12 401.734V401.734Z" fill="#3360FF"/>
<path d="M204.853 223.685C194.706 197.682 201.134 180.597 201.134 180.597C206.348 163.427 219.284 149.639 235.833 143.37L168.987 121.099C142.416 112.248 113.163 119.007 93.0836 138.68C64.1339 167.045 31.8376 199.61 31.8376 199.61C25.4148 205.942 23.2408 215.476 26.2731 224.007L57.1832 310.96C51.4536 312.834 47.2961 318.269 47.2961 324.671C47.3077 331.188 47.2568 339.659 47.3562 340.871H20.8542C9.55664 340.871 0.398438 350.783 0.398438 362.191V455.497C0.398438 466.904 9.55664 476.151 20.8542 476.151H23.4568V480.699C23.4568 484.783 26.7364 488.095 30.7818 488.095H49.1813C53.2268 488.095 56.5063 484.783 56.5063 480.699V476.151H103.791V480.699C103.791 484.783 107.07 488.095 111.116 488.095H129.885C133.931 488.095 137.21 484.783 137.21 480.699V476.151H139.813C151.11 476.151 160.268 466.904 160.268 455.497V362.191C160.268 350.783 151.11 340.871 139.813 340.871H113.312C113.41 339.674 113.357 333.244 113.372 324.671C113.372 318.32 109.278 312.925 103.618 311.01C103.927 307.723 103.569 304.323 102.391 301.011L74.4334 222.361L110.69 186.614L89.6759 219.736L116.722 295.817C117.353 297.591 117.84 299.382 118.203 301.177C124.972 291.229 137.253 285.87 149.651 288.61C164.293 291.846 173.976 293.985 199.29 299.579C204.138 273.497 203.878 272.689 205.373 268.174C208.705 258.109 215.974 250.172 225.077 246.215C216.528 240.677 209.523 232.931 204.853 223.685V223.685ZM88.5496 330.636C91.9677 329.397 94.8961 327.406 97.2607 324.936H98.8318V340.869H61.8339V324.936H64.3233C70.4781 331.349 79.8777 333.778 88.5496 330.636V330.636Z" fill="#3360FF"/>
</svg>
