<svg width="514" height="601" viewBox="0 0 514 601" fill="none" xmlns="http://www.w3.org/2000/svg">
<path d="M253.931 248.661H254.145L359.067 206.842C359.495 204.588 359.495 202.335 359.495 200.331C359.495 198.078 359.281 196.074 358.639 194.071C356.926 188.311 353.714 182.051 349.217 177.544V122.703C349.217 82.1358 336.798 66.1093 323.95 56.844C317.312 33.3051 289.69 0 235.516 0C171.278 0 122.885 74.373 122.885 122.703C122.885 142.736 122.243 158.512 121.601 170.532C121.601 173.036 121.387 175.29 121.387 177.293C116.676 182.301 113.464 189.063 111.965 195.573C111.751 197.076 111.537 198.578 111.537 200.331C111.537 219.864 120.958 248.16 122.243 251.416C123.528 255.673 126.311 259.179 129.952 261.182C130.166 262.184 130.38 263.686 130.38 266.691C130.38 293.235 149.865 318.276 160.572 330.296C159.501 357.842 152.863 376.873 143.442 381.631L59.5039 414.185C35.7358 423.45 17.9633 445.987 11.7536 474.535L0.404898 527.622C-0.665736 533.131 0.404897 539.141 3.40267 543.649C6.40045 548.156 11.1112 550.911 16.0361 550.911H256.072C249.648 541.395 243.653 530.878 238.086 519.609C223.953 490.311 214.103 454.752 214.103 414.435V314.019C214.103 284.47 230.163 258.427 253.931 248.661V248.661Z" fill="#3360FF"/>
<path d="M502.983 296.14L390.566 251.416C387.226 250.063 383.586 250.063 380.245 251.416L267.829 296.14C261.298 298.719 256.93 305.856 256.93 313.919V414.535C256.93 537.338 374.143 597.037 379.132 599.516C383.157 601.494 387.654 601.494 391.68 599.516C396.669 597.012 513.882 537.338 513.882 414.535V313.919C513.882 305.856 509.514 298.719 502.983 296.14ZM455.768 391.097L396.883 478.741C389.388 489.935 375.342 491.563 366.113 482.297L328.641 444.735C319.647 435.745 318.598 419.919 326.328 409.427C334.015 398.934 347.548 397.733 356.499 406.722L377.012 427.281L422.086 360.195C429.387 349.327 442.835 347.399 452.149 355.988C461.464 364.477 463.091 380.229 455.768 391.097V391.097Z" fill="#3360FF"/>
</svg>
