<svg width="563" height="600" viewBox="0 0 563 600" fill="none" xmlns="http://www.w3.org/2000/svg">
<path d="M80.3412 235.714C80.3253 230.036 78.2041 224.596 74.4408 220.581C70.6775 216.566 65.578 214.303 60.2559 214.286H20.0853C14.7584 214.286 9.64958 216.543 5.88285 220.562C2.11612 224.581 0 230.031 0 235.714C0 241.397 2.11612 246.848 5.88285 250.867C9.64958 254.885 14.7584 257.143 20.0853 257.143H60.2559C65.578 257.126 70.6775 254.863 74.4408 250.848C78.2041 246.833 80.3253 241.392 80.3412 235.714V235.714Z" fill="#3360FF"/>
<path d="M20.0853 128.572H60.2559C65.5829 128.572 70.6917 126.314 74.4584 122.295C78.2251 118.277 80.3412 112.826 80.3412 107.143C80.3412 101.46 78.2251 96.0093 74.4584 91.9906C70.6917 87.972 65.5829 85.7144 60.2559 85.7144H20.0853C14.7584 85.7144 9.64958 87.972 5.88285 91.9906C2.11612 96.0093 0 101.46 0 107.143C0 112.826 2.11612 118.277 5.88285 122.295C9.64958 126.314 14.7584 128.572 20.0853 128.572V128.572Z" fill="#3360FF"/>
<path d="M80.3412 364.286C80.3253 358.608 78.2041 353.167 74.4408 349.152C70.6775 345.137 65.578 342.874 60.2559 342.857H20.0853C14.7584 342.857 9.64958 345.115 5.88285 349.133C2.11612 353.152 0 358.603 0 364.286C0 369.969 2.11612 375.419 5.88285 379.438C9.64958 383.457 14.7584 385.714 20.0853 385.714H60.2559C65.578 385.697 70.6775 383.434 74.4408 379.419C78.2041 375.404 80.3253 369.964 80.3412 364.286Z" fill="#3360FF"/>
<path d="M562.39 32.1429C562.366 23.6259 559.184 15.465 553.54 9.44253C547.895 3.42008 540.245 0.0254367 532.262 0H531.961C538.638 9.20375 542.274 20.5046 542.305 32.1429V567.857C542.274 579.495 538.638 590.796 531.961 600H532.262C540.245 599.975 547.895 596.58 553.54 590.557C559.184 584.535 562.366 576.374 562.39 567.857V32.1429Z" fill="#3360FF"/>
<path d="M20.0853 514.286H60.2559C65.5829 514.286 70.6917 512.028 74.4584 508.009C78.2251 503.991 80.3412 498.54 80.3412 492.857C80.3412 487.174 78.2251 481.723 74.4584 477.705C70.6917 473.686 65.5829 471.429 60.2559 471.429H20.0853C14.7584 471.429 9.64958 473.686 5.88285 477.705C2.11612 481.723 0 487.174 0 492.857C0 498.54 2.11612 503.991 5.88285 508.009C9.64958 512.028 14.7584 514.286 20.0853 514.286V514.286Z" fill="#3360FF"/>
<path d="M522.218 567.857V32.1429C522.195 23.6259 519.013 15.465 513.368 9.44253C507.723 3.42008 500.074 0.0254367 492.09 0H140.598V600H492.09C500.074 599.975 507.723 596.58 513.368 590.557C519.013 584.535 522.195 576.374 522.218 567.857V567.857ZM331.408 460.714C301.614 460.714 272.49 451.289 247.717 433.629C222.944 415.97 203.637 390.869 192.235 361.503C180.833 332.136 177.85 299.822 183.663 268.646C189.475 237.471 203.822 208.834 224.89 186.358C245.957 163.882 272.798 148.575 302.02 142.374C331.241 136.173 361.53 139.355 389.055 151.519C416.581 163.683 440.108 184.283 456.66 210.712C473.213 237.141 482.048 268.214 482.048 300C482 342.608 466.114 383.457 437.874 413.586C409.634 443.715 371.346 460.663 331.408 460.714V460.714Z" fill="#3360FF"/>
<path d="M60.2575 600H120.513V0H60.2575C57.594 0 55.0396 1.12883 53.1563 3.13814C51.2729 5.14746 50.2148 7.87268 50.2148 10.7143V64.2857H60.2575C70.9114 64.2857 81.129 68.801 88.6624 76.8383C96.1959 84.8756 100.428 95.7764 100.428 107.143C100.428 118.509 96.1959 129.41 88.6624 137.447C81.129 145.485 70.9114 150 60.2575 150H50.2148V192.857H60.2575C70.9114 192.857 81.129 197.372 88.6624 205.41C96.1959 213.447 100.428 224.348 100.428 235.714C100.428 247.081 96.1959 257.982 88.6624 266.019C81.129 274.056 70.9114 278.571 60.2575 278.571H50.2148V321.429H60.2575C70.9114 321.429 81.129 325.944 88.6624 333.981C96.1959 342.018 100.428 352.919 100.428 364.286C100.428 375.652 96.1959 386.553 88.6624 394.59C81.129 402.628 70.9114 407.143 60.2575 407.143H50.2148V450H60.2575C70.9114 450 81.129 454.515 88.6624 462.553C96.1959 470.59 100.428 481.491 100.428 492.857C100.428 504.224 96.1959 515.124 88.6624 523.162C81.129 531.199 70.9114 535.714 60.2575 535.714H50.2148V589.286C50.2148 592.127 51.2729 594.853 53.1563 596.862C55.0396 598.871 57.594 600 60.2575 600Z" fill="#3360FF"/>
<path d="M331.407 289.286C353.593 289.286 371.578 270.098 371.578 246.429C371.578 222.759 353.593 203.572 331.407 203.572C309.221 203.572 291.236 222.759 291.236 246.429C291.236 270.098 309.221 289.286 331.407 289.286Z" fill="#3360FF"/>
<path d="M331.408 160.714C306.621 160.69 282.34 168.202 261.411 182.37C240.481 196.537 223.768 216.774 213.23 240.71C202.692 264.646 198.765 291.29 201.909 317.521C205.053 343.752 215.137 368.485 230.981 388.822V385.714C230.996 365.697 236.855 346.182 247.743 329.88C258.632 313.578 274.009 301.299 291.739 294.75C282.51 286.139 275.963 274.729 272.972 262.044C269.981 249.358 270.689 236.002 275 223.756C279.311 211.511 287.02 200.96 297.099 193.513C307.178 186.065 319.147 182.075 331.408 182.075C343.668 182.075 355.637 186.065 365.716 193.513C375.795 200.96 383.505 211.511 387.816 223.756C392.127 236.002 392.834 249.358 389.843 262.044C386.852 274.729 380.305 286.139 371.076 294.75C388.806 301.299 404.184 313.578 415.072 329.88C425.961 346.182 431.819 365.697 431.834 385.714V388.822C447.678 368.485 457.763 343.752 460.906 317.521C464.05 291.29 460.123 264.646 449.585 240.71C439.047 216.774 422.334 196.537 401.405 182.37C380.475 168.202 356.195 160.69 331.408 160.714V160.714Z" fill="#3360FF"/>
<path d="M341.45 310.714H321.365C302.727 310.737 284.859 318.646 271.68 332.706C258.501 346.766 251.088 365.83 251.066 385.714V409.607C273.969 428.833 302.265 439.287 331.408 439.287C360.55 439.287 388.846 428.833 411.749 409.607V385.714C411.728 365.83 404.314 346.766 391.135 332.706C377.956 318.646 360.088 310.737 341.45 310.714V310.714Z" fill="#3360FF"/>
</svg>
